<?xml version="1.0" encoding="utf-8"?>
<!-- Generator: Adobe Illustrator 17.0.0, SVG Export Plug-In . SVG Version: 6.00 Build 0)  -->
<!DOCTYPE svg PUBLIC "-//W3C//DTD SVG 1.1//EN" "http://www.w3.org/Graphics/SVG/1.1/DTD/svg11.dtd">
<svg version="1.1" id="Layer_1" xmlns="http://www.w3.org/2000/svg" xmlns:xlink="http://www.w3.org/1999/xlink" x="0px" y="0px"
	 width="612px" height="792px" viewBox="0 0 612 792" enable-background="new 0 0 612 792" xml:space="preserve">
<path fill="#93DFB8" d="M549.844,361.336c0-42.247-34.253-76.5-76.5-76.5c-37.753,0-69.051,27.377-75.295,63.352H213.951
	c-6.244-35.974-37.533-63.352-75.295-63.352c-42.247,0-76.5,34.253-76.5,76.5c0,22.883,10.098,43.356,26.02,57.375
	c-15.922,14.019-26.02,34.492-26.02,57.375c0,42.247,34.253,76.5,76.5,76.5c36.921,0,67.731-26.163,74.913-60.961h184.862
	c7.181,34.798,37.992,60.961,74.913,60.961c42.247,0,76.5-34.253,76.5-76.5c0-22.883-10.098-43.356-26.02-57.375
	C539.746,404.692,549.844,384.219,549.844,361.336z"/>
</svg>
